<svg xmlns="http://www.w3.org/2000/svg" xmlns:xlink="http://www.w3.org/1999/xlink" width="16" height="16" viewBox="0 0 16 16" fill="none"><g opacity="1"  transform="translate(0 0)  rotate(0)"><mask id="bg-mask-0" fill="white"><use transform="translate(0 0)  rotate(0)" xlink:href="#path_0"></use></mask><g mask="url(#bg-mask-0)" ><path  id="路径 1" style="fill:#808080; opacity:1;" d="M7.55771,14.1645l2.99999,-2.66l0.4423,0.4988l-0.6451,0.1683l-2,-7.67004l0.6451,-0.16822v0.66667h-2v-0.66667l0.6451,0.16822l-2,7.67004l-0.6451,-0.1683l0.44229,-0.4988l3,2.66l-0.44229,0.4988zM8.44229,15.1622c-0.2524,0.2238 -0.63218,0.2238 -0.88458,0l-3,-2.66c-0.18774,-0.1665 -0.26612,-0.4243 -0.20281,-0.6671l2,-7.66997c0.07656,-0.29359 0.3417,-0.49845 0.6451,-0.49845h2c0.3034,0 0.56854,0.20486 0.6451,0.49845l2,7.66997c0.0633,0.2428 -0.0151,0.5006 -0.2028,0.6671z"></path><path  id="路径 2" style="fill:#808080; opacity:1;" d="M6.61263,1.74041l1,2.33l-0.61263,0.26293v-0.66666h2v0.66666l-0.61263,-0.26293l1,-2.33l0.61263,0.26293l-0.37108,0.55385l-1,-0.67l0.37108,-0.55385v0.66667h-2v-0.66667l0.37108,0.55385l-1,0.67l-0.37108,-0.55385zM5.38737,2.26627c-0.12657,-0.29491 -0.02506,-0.63814 0.24155,-0.81677l1,-0.67c0.10978,-0.07355 0.23894,-0.11282 0.37108,-0.11282h2c0.13214,0 0.2613,0.03927 0.37108,0.11282l1.00002,0.67c0.2666,0.17863 0.3681,0.52186 0.2415,0.81677l-0.99997,2.33c-0.10513,0.24496 -0.34607,0.40374 -0.61263,0.40374h-2c-0.26656,0 -0.5075,-0.15878 -0.61263,-0.40374z"></path></g></g><defs><rect id="path_0" x="0" y="0" width="16" height="16" /></defs></svg>